<?xml version="1.0" encoding="UTF-8" standalone="no"?>
<!DOCTYPE svg PUBLIC "-//W3C//DTD SVG 1.1//EN"
 "http://www.w3.org/Graphics/SVG/1.1/DTD/svg11.dtd">
<!-- Generated by graphviz version 2.44.1 (20200629.0846)
 -->
<!-- Title: G Pages: 1 -->
<svg width="671pt" height="359pt"
 viewBox="0.00 0.00 671.15 358.52" xmlns="http://www.w3.org/2000/svg" xmlns:xlink="http://www.w3.org/1999/xlink">
<g id="graph0" class="graph" transform="scale(1 1) rotate(0) translate(4 354.52)">
<title>G</title><style>.edge>path:hover{stroke-width:8}</style>
<polygon fill="white" stroke="transparent" points="-4,4 -4,-354.52 667.15,-354.52 667.15,4 -4,4"/>
<!-- celery -->
<g id="node1" class="node">
<title>celery</title><style>.edge>path:hover{stroke-width:8}</style>
<ellipse fill="#cc3333" stroke="black" cx="27" cy="-257.31" rx="27" ry="18"/>
<text text-anchor="middle" x="27" y="-254.81" font-family="Helvetica,sans-Serif" font-size="10.00" fill="#ffffff">celery</text>
</g>
<!-- src_server_backend_tasks_tasks -->
<g id="node9" class="node">
<title>src_server_backend_tasks_tasks</title><style>.edge>path:hover{stroke-width:8}</style>
<ellipse fill="#813781" stroke="black" cx="329" cy="-44.55" rx="39.7" ry="44.6"/>
<text text-anchor="middle" x="329" y="-64.05" font-family="Helvetica,sans-Serif" font-size="10.00" fill="#ffffff">src.</text>
<text text-anchor="middle" x="329" y="-53.05" font-family="Helvetica,sans-Serif" font-size="10.00" fill="#ffffff">server.</text>
<text text-anchor="middle" x="329" y="-42.05" font-family="Helvetica,sans-Serif" font-size="10.00" fill="#ffffff">backend.</text>
<text text-anchor="middle" x="329" y="-31.05" font-family="Helvetica,sans-Serif" font-size="10.00" fill="#ffffff">tasks.</text>
<text text-anchor="middle" x="329" y="-20.05" font-family="Helvetica,sans-Serif" font-size="10.00" fill="#ffffff">tasks</text>
</g>
<!-- celery&#45;&gt;src_server_backend_tasks_tasks -->
<g id="edge1" class="edge">
<title>celery&#45;&gt;src_server_backend_tasks_tasks</title><style>.edge>path:hover{stroke-width:8}</style>
<path fill="none" stroke="black" d="M45.81,-244C51.17,-240.98 57.15,-238.05 63,-236.1 119.56,-217.16 316.84,-258.49 329,-200.1"/>
<path fill="none" stroke="black" d="M329,-199.1C335.81,-166.41 335.95,-128.96 334.33,-99.23"/>
<polygon fill="#cc3333" stroke="black" points="337.81,-98.81 333.69,-89.05 330.82,-99.25 337.81,-98.81"/>
</g>
<!-- celery_result -->
<g id="node2" class="node">
<title>celery_result</title><style>.edge>path:hover{stroke-width:8}</style>
<ellipse fill="#b34c4c" stroke="black" cx="112" cy="-257.31" rx="40.06" ry="18"/>
<text text-anchor="middle" x="112" y="-254.81" font-family="Helvetica,sans-Serif" font-size="10.00" fill="#ffffff">celery.result</text>
</g>
<!-- celery_result&#45;&gt;src_server_backend_tasks_tasks -->
<g id="edge2" class="edge">
<title>celery_result&#45;&gt;src_server_backend_tasks_tasks</title><style>.edge>path:hover{stroke-width:8}</style>
<path fill="none" stroke="black" d="M139.41,-243.99C146.36,-241.14 153.88,-238.31 161,-236.1 197.46,-224.77 321.22,-237.47 329,-200.1"/>
</g>
<!-- numpy -->
<g id="node3" class="node">
<title>numpy</title><style>.edge>path:hover{stroke-width:8}</style>
<ellipse fill="#d9d926" stroke="black" cx="273" cy="-332.52" rx="27.16" ry="18"/>
<text text-anchor="middle" x="273" y="-330.02" font-family="Helvetica,sans-Serif" font-size="10.00" fill="#000000">numpy</text>
</g>
<!-- pandas -->
<g id="node4" class="node">
<title>pandas</title><style>.edge>path:hover{stroke-width:8}</style>
<ellipse fill="#3db83d" stroke="black" cx="198" cy="-257.31" rx="28.01" ry="18"/>
<text text-anchor="middle" x="198" y="-254.81" font-family="Helvetica,sans-Serif" font-size="10.00" fill="#000000">pandas</text>
</g>
<!-- numpy&#45;&gt;pandas -->
<g id="edge3" class="edge">
<title>numpy&#45;&gt;pandas</title><style>.edge>path:hover{stroke-width:8}</style>
<path fill="none" stroke="black" d="M258.18,-317.06C247.29,-306.43 232.32,-291.81 220.03,-279.81"/>
<polygon fill="#d9d926" stroke="black" points="222.39,-277.22 212.79,-272.74 217.5,-282.23 222.39,-277.22"/>
</g>
<!-- sklearn -->
<g id="node5" class="node">
<title>sklearn</title><style>.edge>path:hover{stroke-width:8}</style>
<ellipse fill="#31c4c4" stroke="black" cx="273" cy="-257.31" rx="28.01" ry="18"/>
<text text-anchor="middle" x="273" y="-254.81" font-family="Helvetica,sans-Serif" font-size="10.00" fill="#000000">sklearn</text>
</g>
<!-- numpy&#45;&gt;sklearn -->
<g id="edge4" class="edge">
<title>numpy&#45;&gt;sklearn</title><style>.edge>path:hover{stroke-width:8}</style>
<path fill="none" stroke="black" d="M273,-314.17C273,-305.69 273,-295.29 273,-285.76"/>
<polygon fill="#d9d926" stroke="black" points="276.5,-285.53 273,-275.53 269.5,-285.53 276.5,-285.53"/>
</g>
<!-- numpy&#45;&gt;src_server_backend_tasks_tasks -->
<g id="edge5" class="edge">
<title>numpy&#45;&gt;src_server_backend_tasks_tasks</title><style>.edge>path:hover{stroke-width:8}</style>
<path fill="none" stroke="black" d="M285.99,-316.22C293.97,-306.11 303.82,-292.23 310,-278.52 324.74,-245.83 319.35,-234.64 329,-200.1"/>
</g>
<!-- pandas&#45;&gt;src_server_backend_tasks_tasks -->
<g id="edge6" class="edge">
<title>pandas&#45;&gt;src_server_backend_tasks_tasks</title><style>.edge>path:hover{stroke-width:8}</style>
<path fill="none" stroke="black" d="M218.68,-244.73C224.24,-241.78 230.29,-238.71 236,-236.1 276.3,-217.66 319.96,-243.49 329,-200.1"/>
</g>
<!-- sklearn&#45;&gt;src_server_backend_tasks_tasks -->
<g id="edge7" class="edge">
<title>sklearn&#45;&gt;src_server_backend_tasks_tasks</title><style>.edge>path:hover{stroke-width:8}</style>
<path fill="none" stroke="black" d="M293.46,-244.6C307.74,-234.87 324.96,-219.52 329,-200.1"/>
</g>
<!-- sklearn_metrics -->
<g id="node6" class="node">
<title>sklearn_metrics</title><style>.edge>path:hover{stroke-width:8}</style>
<ellipse fill="#3db8b8" stroke="black" cx="393" cy="-257.31" rx="36.12" ry="21.43"/>
<text text-anchor="middle" x="393" y="-260.31" font-family="Helvetica,sans-Serif" font-size="10.00" fill="#000000">sklearn.</text>
<text text-anchor="middle" x="393" y="-249.31" font-family="Helvetica,sans-Serif" font-size="10.00" fill="#000000">metrics</text>
</g>
<!-- sklearn_metrics&#45;&gt;src_server_backend_tasks_tasks -->
<g id="edge8" class="edge">
<title>sklearn_metrics&#45;&gt;src_server_backend_tasks_tasks</title><style>.edge>path:hover{stroke-width:8}</style>
<path fill="none" stroke="black" d="M363.28,-244.83C344.6,-235.49 324.75,-220.51 329,-200.1"/>
</g>
<!-- sklearn_extra -->
<g id="node7" class="node">
<title>sklearn_extra</title><style>.edge>path:hover{stroke-width:8}</style>
<ellipse fill="#4040c0" stroke="black" cx="491" cy="-257.31" rx="44.3" ry="18"/>
<text text-anchor="middle" x="491" y="-254.81" font-family="Helvetica,sans-Serif" font-size="10.00" fill="#ffffff">sklearn_extra</text>
</g>
<!-- sklearn_extra&#45;&gt;src_server_backend_tasks_tasks -->
<g id="edge9" class="edge">
<title>sklearn_extra&#45;&gt;src_server_backend_tasks_tasks</title><style>.edge>path:hover{stroke-width:8}</style>
<path fill="none" stroke="black" d="M460.26,-244.31C452.98,-241.55 445.24,-238.67 438,-236.1 389.93,-219 318.6,-250.04 329,-200.1"/>
</g>
<!-- sklearn_extra_cluster -->
<g id="node8" class="node">
<title>sklearn_extra_cluster</title><style>.edge>path:hover{stroke-width:8}</style>
<ellipse fill="#5353b6" stroke="black" cx="608" cy="-257.31" rx="55.31" ry="21.43"/>
<text text-anchor="middle" x="608" y="-260.31" font-family="Helvetica,sans-Serif" font-size="10.00" fill="#ffffff">sklearn_extra.</text>
<text text-anchor="middle" x="608" y="-249.31" font-family="Helvetica,sans-Serif" font-size="10.00" fill="#ffffff">cluster</text>
</g>
<!-- sklearn_extra_cluster&#45;&gt;src_server_backend_tasks_tasks -->
<g id="edge10" class="edge">
<title>sklearn_extra_cluster&#45;&gt;src_server_backend_tasks_tasks</title><style>.edge>path:hover{stroke-width:8}</style>
<path fill="none" stroke="black" d="M567.96,-242.72C560.07,-240.31 551.82,-237.97 544,-236.1 496.9,-224.77 319.12,-247.52 329,-200.1"/>
</g>
</g>
</svg>
