<?xml version="1.0" encoding="UTF-8" standalone="no"?>
<!DOCTYPE svg PUBLIC "-//W3C//DTD SVG 1.1//EN"
 "http://www.w3.org/Graphics/SVG/1.1/DTD/svg11.dtd">
<!-- Generated by graphviz version 2.44.1 (20200629.0846)
 -->
<!-- Title: G Pages: 1 -->
<svg width="437pt" height="415pt"
 viewBox="0.00 0.00 437.14 414.97" xmlns="http://www.w3.org/2000/svg" xmlns:xlink="http://www.w3.org/1999/xlink">
<g id="graph0" class="graph" transform="scale(1 1) rotate(0) translate(4 410.97)">
<title>G</title><style>.edge>path:hover{stroke-width:8}</style>
<polygon fill="white" stroke="transparent" points="-4,4 -4,-410.97 433.14,-410.97 433.14,4 -4,4"/>
<!-- dash -->
<g id="node1" class="node">
<title>dash</title><style>.edge>path:hover{stroke-width:8}</style>
<ellipse fill="#d02424" stroke="black" cx="251.64" cy="-310.54" rx="27" ry="18"/>
<text text-anchor="middle" x="251.64" y="-308.04" font-family="Helvetica,sans-Serif" font-size="10.00" fill="#ffffff">dash</text>
</g>
<!-- dash_core_components -->
<g id="node4" class="node">
<title>dash_core_components</title><style>.edge>path:hover{stroke-width:8}</style>
<ellipse fill="#4cb375" stroke="black" cx="70.64" cy="-238.54" rx="70.78" ry="18"/>
<text text-anchor="middle" x="70.64" y="-236.04" font-family="Helvetica,sans-Serif" font-size="10.00" fill="#000000">dash_core_components</text>
</g>
<!-- dash&#45;&gt;dash_core_components -->
<g id="edge1" class="edge">
<title>dash&#45;&gt;dash_core_components</title><style>.edge>path:hover{stroke-width:8}</style>
<path fill="none" stroke="black" d="M228.72,-300.67C200.89,-289.91 153.27,-271.49 117.55,-257.68"/>
<polygon fill="#d02424" stroke="black" points="118.4,-254.26 107.81,-253.92 115.88,-260.79 118.4,-254.26"/>
</g>
<!-- dash_html_components -->
<g id="node5" class="node">
<title>dash_html_components</title><style>.edge>path:hover{stroke-width:8}</style>
<ellipse fill="#4c75b3" stroke="black" cx="229.64" cy="-238.54" rx="70.78" ry="18"/>
<text text-anchor="middle" x="229.64" y="-236.04" font-family="Helvetica,sans-Serif" font-size="10.00" fill="#ffffff">dash_html_components</text>
</g>
<!-- dash&#45;&gt;dash_html_components -->
<g id="edge2" class="edge">
<title>dash&#45;&gt;dash_html_components</title><style>.edge>path:hover{stroke-width:8}</style>
<path fill="none" stroke="black" d="M246.31,-292.59C243.86,-284.8 240.9,-275.36 238.15,-266.62"/>
<polygon fill="#d02424" stroke="black" points="241.41,-265.3 235.07,-256.81 234.73,-267.4 241.41,-265.3"/>
</g>
<!-- src_server_backend_index -->
<g id="node6" class="node">
<title>src_server_backend_index</title><style>.edge>path:hover{stroke-width:8}</style>
<ellipse fill="#854096" stroke="black" cx="328.64" cy="-36.77" rx="39.7" ry="36.54"/>
<text text-anchor="middle" x="328.64" y="-50.77" font-family="Helvetica,sans-Serif" font-size="10.00" fill="#ffffff">src.</text>
<text text-anchor="middle" x="328.64" y="-39.77" font-family="Helvetica,sans-Serif" font-size="10.00" fill="#ffffff">server.</text>
<text text-anchor="middle" x="328.64" y="-28.77" font-family="Helvetica,sans-Serif" font-size="10.00" fill="#ffffff">backend.</text>
<text text-anchor="middle" x="328.64" y="-17.77" font-family="Helvetica,sans-Serif" font-size="10.00" fill="#ffffff">index</text>
</g>
<!-- dash&#45;&gt;src_server_backend_index -->
<g id="edge3" class="edge">
<title>dash&#45;&gt;src_server_backend_index</title><style>.edge>path:hover{stroke-width:8}</style>
<path fill="none" stroke="black" d="M328.64,-237.54C334.36,-214.69 315.14,-203.85 328.64,-184.54"/>
<path fill="none" stroke="black" d="M273.04,-299.22C293.29,-287.91 321.61,-267.58 328.64,-239.54"/>
</g>
<!-- dash_dependencies -->
<g id="node2" class="node">
<title>dash_dependencies</title><style>.edge>path:hover{stroke-width:8}</style>
<ellipse fill="#c24747" stroke="black" cx="278.64" cy="-385.75" rx="54.39" ry="21.43"/>
<text text-anchor="middle" x="278.64" y="-388.75" font-family="Helvetica,sans-Serif" font-size="10.00" fill="#ffffff">dash.</text>
<text text-anchor="middle" x="278.64" y="-377.75" font-family="Helvetica,sans-Serif" font-size="10.00" fill="#ffffff">dependencies</text>
</g>
<!-- dash_dependencies&#45;&gt;dash -->
<g id="edge4" class="edge">
<title>dash_dependencies&#45;&gt;dash</title><style>.edge>path:hover{stroke-width:8}</style>
<path fill="none" stroke="black" d="M271.12,-364.36C268.08,-356.12 264.54,-346.51 261.31,-337.76"/>
<polygon fill="#c24747" stroke="black" points="264.59,-336.54 257.85,-328.37 258.02,-338.96 264.59,-336.54"/>
</g>
<!-- dash_dependencies&#45;&gt;src_server_backend_index -->
<g id="edge5" class="edge">
<title>dash_dependencies&#45;&gt;src_server_backend_index</title><style>.edge>path:hover{stroke-width:8}</style>
<path fill="none" stroke="black" d="M286.89,-364.41C297.88,-336.63 317.23,-285.06 328.64,-239.54"/>
</g>
<!-- dash_auth -->
<g id="node3" class="node">
<title>dash_auth</title><style>.edge>path:hover{stroke-width:8}</style>
<ellipse fill="#a2b653" stroke="black" cx="392.64" cy="-238.54" rx="36.49" ry="18"/>
<text text-anchor="middle" x="392.64" y="-236.04" font-family="Helvetica,sans-Serif" font-size="10.00" fill="#000000">dash_auth</text>
</g>
<!-- dash_auth&#45;&gt;src_server_backend_index -->
<g id="edge6" class="edge">
<title>dash_auth&#45;&gt;src_server_backend_index</title><style>.edge>path:hover{stroke-width:8}</style>
<path fill="none" stroke="black" d="M363.39,-227.57C342.25,-218.55 318.99,-203.75 328.64,-184.54"/>
</g>
<!-- dash_core_components&#45;&gt;src_server_backend_index -->
<g id="edge7" class="edge">
<title>dash_core_components&#45;&gt;src_server_backend_index</title><style>.edge>path:hover{stroke-width:8}</style>
<path fill="none" stroke="black" d="M328.64,-183.54C344.19,-152.59 343.11,-113.07 338.74,-82.99"/>
<polygon fill="#4cb375" stroke="black" points="342.14,-82.08 337.08,-72.77 335.23,-83.2 342.14,-82.08"/>
<path fill="none" stroke="black" d="M122.46,-226.28C131.52,-224.35 140.85,-222.37 149.64,-220.54 189.36,-212.27 305.39,-217.79 328.64,-184.54"/>
</g>
<!-- dash_html_components&#45;&gt;src_server_backend_index -->
<g id="edge8" class="edge">
<title>dash_html_components&#45;&gt;src_server_backend_index</title><style>.edge>path:hover{stroke-width:8}</style>
<path fill="none" stroke="black" d="M277.49,-225.25C297.57,-217.3 318.57,-204.57 328.64,-184.54"/>
</g>
</g>
</svg>
